<svg width="52" height="52" viewBox="0 0 52 52" fill="none" xmlns="http://www.w3.org/2000/svg">
<g filter="url(#filter0_f_102_309)">
<rect x="10.1836" y="9.16333" width="30.6122" height="5.10204" rx="2.55102" fill="#00FFF5"/>
<rect x="10.6836" y="9.66333" width="29.6122" height="4.10204" rx="2.05102" stroke="#00FFF5"/>
</g>
<g filter="url(#filter1_f_102_309)">
<rect x="10.1836" y="17.3264" width="30.6122" height="5.10204" rx="2.55102" fill="#00FFF5"/>
<rect x="10.6836" y="17.8264" width="29.6122" height="4.10204" rx="2.05102" stroke="#00FFF5"/>
</g>
<g filter="url(#filter2_f_102_309)">
<rect x="10.6836" y="32.1123" width="29.6122" height="10.2245" rx="2.5" stroke="#00FFF5"/>
</g>
<g filter="url(#filter3_f_102_309)">
<path fill-rule="evenodd" clip-rule="evenodd" d="M6 4H46C47.1046 4 48 4.89543 48 6V46C48 47.1046 47.1046 48 46 48H28.5512V51H46C48.7614 51 51 48.7614 51 46V6C51 3.23858 48.7614 1 46 1H6C3.23858 1 1 3.23858 1 6V46C1 48.7614 3.23858 51 6 51H8.14307V48H6C4.89543 48 4 47.1046 4 46V6C4 4.89543 4.89543 4 6 4Z" fill="#00FFF5"/>
</g>
<g filter="url(#filter4_f_102_309)">
<circle cx="14.7757" cy="49.4693" r="1.53061" fill="#00FFF5"/>
</g>
<defs>
<filter id="filter0_f_102_309" x="9.83359" y="8.81333" width="31.3123" height="5.80205" filterUnits="userSpaceOnUse" color-interpolation-filters="sRGB">
<feFlood flood-opacity="0" result="BackgroundImageFix"/>
<feBlend mode="normal" in="SourceGraphic" in2="BackgroundImageFix" result="shape"/>
<feGaussianBlur stdDeviation="0.175" result="effect1_foregroundBlur_102_309"/>
</filter>
<filter id="filter1_f_102_309" x="9.83359" y="16.9764" width="31.3123" height="5.80205" filterUnits="userSpaceOnUse" color-interpolation-filters="sRGB">
<feFlood flood-opacity="0" result="BackgroundImageFix"/>
<feBlend mode="normal" in="SourceGraphic" in2="BackgroundImageFix" result="shape"/>
<feGaussianBlur stdDeviation="0.175" result="effect1_foregroundBlur_102_309"/>
</filter>
<filter id="filter2_f_102_309" x="9.83359" y="31.2623" width="31.3123" height="11.9246" filterUnits="userSpaceOnUse" color-interpolation-filters="sRGB">
<feFlood flood-opacity="0" result="BackgroundImageFix"/>
<feBlend mode="normal" in="SourceGraphic" in2="BackgroundImageFix" result="shape"/>
<feGaussianBlur stdDeviation="0.175" result="effect1_foregroundBlur_102_309"/>
</filter>
<filter id="filter3_f_102_309" x="0.65" y="0.65" width="50.7" height="50.7" filterUnits="userSpaceOnUse" color-interpolation-filters="sRGB">
<feFlood flood-opacity="0" result="BackgroundImageFix"/>
<feBlend mode="normal" in="SourceGraphic" in2="BackgroundImageFix" result="shape"/>
<feGaussianBlur stdDeviation="0.175" result="effect1_foregroundBlur_102_309"/>
</filter>
<filter id="filter4_f_102_309" x="12.8951" y="47.5887" width="3.76104" height="3.76128" filterUnits="userSpaceOnUse" color-interpolation-filters="sRGB">
<feFlood flood-opacity="0" result="BackgroundImageFix"/>
<feBlend mode="normal" in="SourceGraphic" in2="BackgroundImageFix" result="shape"/>
<feGaussianBlur stdDeviation="0.175" result="effect1_foregroundBlur_102_309"/>
</filter>
</defs>
</svg>
