<svg width="47" height="50" viewBox="0 0 47 50" fill="none" xmlns="http://www.w3.org/2000/svg">
<g filter="url(#filter0_f_102_351)">
<g filter="url(#filter1_f_102_351)">
<path fill-rule="evenodd" clip-rule="evenodd" d="M17 25V34H18V25H17ZM30 25V34H31V25H30Z" fill="#00FFF5"/>
<path fill-rule="evenodd" clip-rule="evenodd" d="M34.762 8.45122C34.762 9.41998 34.5044 10.3456 34.0357 11.1946C34.0239 11.1695 34.012 11.1446 34 11.1196V8C34 6.34315 32.6569 5 31 5H24H18C16.3431 5 15 6.34315 15 8V9.4614C14.7719 9.77064 14.5608 10.0922 14.368 10.4248C14.1281 9.79619 14 9.13444 14 8.45122C14 4.33602 18.6477 1 24.381 1C30.1142 1 34.762 4.33602 34.762 8.45122Z" fill="#00FFF5"/>
<path fill-rule="evenodd" clip-rule="evenodd" d="M15 8H14V22H15.5516C15.2042 21.5104 15 20.912 15 20.266V8ZM33.4484 22H34.762V8H34V20.2659C34 20.912 33.7958 21.5104 33.4484 22Z" fill="#00FFF5"/>
<path fill-rule="evenodd" clip-rule="evenodd" d="M30 24.487V25.8513C32.865 25.0351 34.762 23.6129 34.762 21.995C34.762 21.3822 34.4898 20.7975 33.996 20.2632C33.9987 20.3118 34 20.3607 34 20.4097C34 22.0923 32.4208 23.5808 30 24.487ZM18 25.6121V24.0561C16.1535 23.144 15 21.8477 15 20.4097C15 20.2717 15.0106 20.1351 15.0314 20C14.3705 20.6032 14 21.28 14 21.995C14 23.4648 15.5654 24.773 18 25.6121Z" fill="#00FFF5"/>
</g>
<g filter="url(#filter2_f_102_351)">
<path fill-rule="evenodd" clip-rule="evenodd" d="M8.71788 37.3993C8.27273 36.5984 7.22132 36.3676 6.53065 36.9697C3.67639 39.4579 1.69433 42.5737 0.961963 46.021C0.617653 47.6417 1.99214 48.9999 3.649 48.9999H43.5437C45.2006 48.9999 46.575 47.6417 46.2307 46.021C44.8826 39.6754 39.3001 34.4531 31.8377 32.2004C30.9059 31.9191 30.0001 32.642 30.0001 33.6153V33.6153C30.0001 34.3081 30.4719 34.908 31.1338 35.1126C35.7574 36.5418 39.3932 39.2294 41.5007 42.4363C42.5888 44.0921 41.1821 45.9999 39.2008 45.9999H7.99189C6.01058 45.9999 4.60387 44.0921 5.692 42.4363C6.40839 41.3462 7.30139 40.3161 8.34976 39.375C8.90821 38.8737 9.08247 38.0552 8.71788 37.3993V37.3993ZM14.2647 34.3779C14.626 35.0279 15.4057 35.3126 16.1167 35.0948C16.3482 35.024 16.5821 34.9562 16.8184 34.8917C17.504 34.7046 18.0001 34.0946 18.0001 33.3839V33.3839C18.0001 32.4309 17.1286 31.7127 16.2077 31.9582C15.8192 32.0617 15.4354 32.1732 15.0566 32.2924C14.1837 32.567 13.8201 33.5782 14.2647 34.3779V34.3779ZM3.64468 45.9996V45.9996C3.64476 45.9992 3.64459 45.9999 3.64468 45.9996V45.9996Z" fill="#00FFF5"/>
</g>
</g>
<g filter="url(#filter3_f_102_351)">
<path d="M15.5 23V5.5" stroke="#00FFF5"/>
</g>
<g filter="url(#filter4_f_102_351)">
<path d="M15 22V7" stroke="#00FFF5"/>
</g>
<g filter="url(#filter5_f_102_351)">
<path d="M33.5 6V23L34 21.5V19.5V18.5V17V15.5V14V13V10.5V7.5L33.5 6Z" stroke="#00FFF5"/>
</g>
<defs>
<filter id="filter0_f_102_351" x="0.558691" y="0.65" width="46.0755" height="48.7" filterUnits="userSpaceOnUse" color-interpolation-filters="sRGB">
<feFlood flood-opacity="0" result="BackgroundImageFix"/>
<feBlend mode="normal" in="SourceGraphic" in2="BackgroundImageFix" result="shape"/>
<feGaussianBlur stdDeviation="0.175" result="effect1_foregroundBlur_102_351"/>
</filter>
<filter id="filter1_f_102_351" x="13.65" y="0.65" width="21.4617" height="33.7" filterUnits="userSpaceOnUse" color-interpolation-filters="sRGB">
<feFlood flood-opacity="0" result="BackgroundImageFix"/>
<feBlend mode="normal" in="SourceGraphic" in2="BackgroundImageFix" result="shape"/>
<feGaussianBlur stdDeviation="0.175" result="effect1_foregroundBlur_102_351"/>
</filter>
<filter id="filter2_f_102_351" x="0.558691" y="31.5597" width="46.0755" height="17.7903" filterUnits="userSpaceOnUse" color-interpolation-filters="sRGB">
<feFlood flood-opacity="0" result="BackgroundImageFix"/>
<feBlend mode="normal" in="SourceGraphic" in2="BackgroundImageFix" result="shape"/>
<feGaussianBlur stdDeviation="0.175" result="effect1_foregroundBlur_102_351"/>
</filter>
<filter id="filter3_f_102_351" x="14.65" y="5.15" width="1.7" height="18.2" filterUnits="userSpaceOnUse" color-interpolation-filters="sRGB">
<feFlood flood-opacity="0" result="BackgroundImageFix"/>
<feBlend mode="normal" in="SourceGraphic" in2="BackgroundImageFix" result="shape"/>
<feGaussianBlur stdDeviation="0.175" result="effect1_foregroundBlur_102_351"/>
</filter>
<filter id="filter4_f_102_351" x="14.15" y="6.65" width="1.7" height="15.7" filterUnits="userSpaceOnUse" color-interpolation-filters="sRGB">
<feFlood flood-opacity="0" result="BackgroundImageFix"/>
<feBlend mode="normal" in="SourceGraphic" in2="BackgroundImageFix" result="shape"/>
<feGaussianBlur stdDeviation="0.175" result="effect1_foregroundBlur_102_351"/>
</filter>
<filter id="filter5_f_102_351" x="32.65" y="5.4918" width="2.2" height="18.0164" filterUnits="userSpaceOnUse" color-interpolation-filters="sRGB">
<feFlood flood-opacity="0" result="BackgroundImageFix"/>
<feBlend mode="normal" in="SourceGraphic" in2="BackgroundImageFix" result="shape"/>
<feGaussianBlur stdDeviation="0.175" result="effect1_foregroundBlur_102_351"/>
</filter>
</defs>
</svg>
